M48
INCH
T01C0.0150
T02C0.0200
T03C0.0600
T04C0.0300
T05C0.0400
%
T01
X-010000Y-003500
T02
X-014000Y-005905
X-009842Y-001181
X-001750Y-001000
X-002750Y-008250
X-007250Y-008250
X+001000Y-011000
X-012250Y-023000
X-004724Y-001181
X-002362Y-002755
X-003149Y-004330
X-001750Y-006500
X-005250Y-006500
T03
X-012204Y-016173
X-016929Y-016173
X-014566Y-015385
X-016929Y-021094
X-012204Y-021094
X-016535Y+000787
X-011811Y+000787
X-014173Y+000000
X-011811Y+005708
X-016535Y+005708
X-000393Y-016173
X-005118Y-016173
X-002755Y-015385
X-005118Y-021094
X-000393Y-021094
X-004724Y+000787
X+000000Y+000787
X-002362Y+000000
X+000000Y+005708
X-004724Y+005708
X-018897Y+007086
X+004724Y+007086
X-018897Y-023228
X+004724Y-023228
T04
X-009448Y-009842
X-007448Y-009842
X-009448Y-011385
X-009448Y-013385
X-007480Y-011385
X-007480Y-013385
X-011811Y-012992
X-011811Y-011992
X-001181Y-002755
X-000181Y-002755
X-015960Y-005905
X-014960Y-005905
X-008267Y-017310
X-008267Y-018110
X-008267Y-018910
X-008267Y+003137
X-008267Y+003937
X-008267Y+004737
X-008267Y-020866
X-008267Y-021666
X-008267Y-022466
X-008267Y+005892
X-008267Y+006692
X-008267Y+007492
X+000000Y-005023
X+000000Y-011023
X-009992Y+001018
X-009992Y+005018
X-006000Y-005500
X-005000Y-005500
X-006299Y+001181
X-006299Y+005181
X-003937Y-009448
X-003937Y-010448
X-001968Y-013204
X-001968Y-012204
X-003937Y-013204
X-003937Y-012204
X-013779Y-013385
X-013779Y-011385
X-016141Y-013385
X-016141Y-011385
X-017330Y-007330
X-016330Y-007330
X-015330Y-007330
X-014330Y-007330
X-013330Y-007330
X-012330Y-007330
X-011330Y-007330
X-010330Y-007330
X-009330Y-007330
X-008330Y-007330
X-007330Y-007330
X-006330Y-007330
X-005330Y-007330
X-004330Y-007330
X-004330Y-004330
X-005330Y-004330
X-006330Y-004330
X-007330Y-004330
X-008330Y-004330
X-009330Y-004330
X-010330Y-004330
X-011330Y-004330
X-012330Y-004330
X-013330Y-004330
X-014330Y-004330
X-015330Y-004330
X-016330Y-004330
X-017322Y-004330
X-009250Y-005500
X-008250Y-005500
X-010500Y-005500
X-012500Y-005500
T05
X-017716Y-009842
X-017716Y-008842
X-016354Y-009055
X-015354Y-009055
X-014354Y-009055
X-013354Y-009055
X-012354Y-009055
X-011354Y-009055
X-003362Y-017354
X-002362Y-017354
X-001968Y+002393
X-002968Y+002393
X-015173Y-017748
X-014173Y-017748
X-013566Y+002393
X-014566Y+002393
X+002755Y-019472
X+002755Y-020472
X+002755Y-021472
X+002755Y-015322
X+002755Y-016322
X+002755Y-017322
X-008267Y-015748
X-008267Y-014748
X+002755Y-011204
X+002755Y-012204
X+002755Y-013204
X-001181Y-018535
X-000181Y-018535
X+002755Y-006480
X+002755Y-007480
X+002755Y-008480
X-010078Y-002362
X-011078Y-002362
X+002755Y+004968
X+002755Y+003968
X+002755Y+002968
X+002755Y+001968
X+002755Y+000968
X+002755Y-000031
X-012559Y-002362
X-013559Y-002362
X-014559Y-002362
X-015559Y-002362
X-016559Y-002362
X-017559Y-002362
X-003543Y-002362
X-004543Y-002362
X-005543Y-002362
X-006543Y-002362
X-007543Y-002362
X-008543Y-002362
M30
